<svg width="40" height="40" fill="none" xmlns="http://www.w3.org/2000/svg"><g clip-path="url(#clip0)" fill="#D7B399"><path d="M9.339 14.723L4.072 19.99l5.267 5.267 5.266-5.267-5.266-5.266zM19.994 4.085l-5.266 5.267 5.266 5.267 5.267-5.267-5.267-5.267zm-.003 21.309l-5.266 5.266 5.266 5.267 5.267-5.267-5.267-5.266zm10.656-10.667l-5.267 5.266 5.267 5.267 5.267-5.267-5.267-5.266z"/><path d="M28.61 12.687l-5.266 5.266 2.039 2.04 5.266-5.267-2.039-2.04zM17.955 23.353l-5.267 5.267 2.04 2.039 5.266-5.267-2.04-2.039zm7.304-14l-5.267 5.267 2.04 2.039 5.266-5.267-2.04-2.039zM14.618 20.005L9.35 25.272l2.04 2.039 5.266-5.267-2.04-2.039zm-3.239-7.319l-2.04 2.04 5.267 5.266 2.04-2.039-5.267-5.267zm3.348-3.336l-2.04 2.039 5.267 5.266 2.04-2.039-5.267-5.266zM25.38 19.99l-2.04 2.04 5.267 5.266 2.04-2.039-5.267-5.267zm-3.334 3.352l-2.04 2.04 5.267 5.266 2.04-2.04-5.267-5.266zm5.257 9.355l-2.033-2.033-5.27 5.27-5.27-5.27-2.033 2.033L20 40l7.303-7.303zM9.336 14.73l-2.033-2.033L0 20l7.303 7.303 2.033-2.033L4.066 20l5.27-5.27zm23.361-2.033l-2.033 2.033 5.27 5.27-5.27 5.27 2.033 2.033L40 20l-7.303-7.303zM25.27 9.336l2.033-2.033L20 0l-7.303 7.303 2.033 2.033L20 4.066l5.27 5.27z"/></g><defs><clipPath id="clip0"><path fill="#fff" d="M0 0h40v40H0z"/></clipPath></defs></svg>