<svg width="137" height="19" fill="none" xmlns="http://www.w3.org/2000/svg"><path d="M5.472 4.368H.096V1.2h14.64v3.168H9.36V18H5.472V4.368zM33.436 1.2V18h-3.888v-6.888h-7.632V18h-3.888V1.2h3.888v6.624h7.632V1.2h3.888zm18.183 13.68V18H38.61V1.2h12.696v3.12h-8.832v3.648h7.8v3.024h-7.8v3.888h9.144zM63.909 1.2h3.888v13.632h8.424V18H63.91V1.2zm23.54 17.088c-1.745 0-3.32-.376-4.729-1.128-1.392-.752-2.488-1.784-3.288-3.096-.784-1.328-1.176-2.816-1.176-4.464 0-1.648.392-3.128 1.176-4.44a8.452 8.452 0 013.288-3.12c1.408-.752 2.984-1.128 4.728-1.128 1.744 0 3.312.376 4.704 1.128a8.452 8.452 0 013.288 3.12c.8 1.312 1.2 2.792 1.2 4.44 0 1.648-.4 3.136-1.2 4.464-.8 1.312-1.896 2.344-3.288 3.096-1.392.752-2.96 1.128-4.704 1.128zm0-3.312c.991 0 1.887-.224 2.687-.672a4.909 4.909 0 001.872-1.92c.464-.816.696-1.744.696-2.784 0-1.04-.232-1.968-.696-2.784a4.744 4.744 0 00-1.872-1.896c-.8-.464-1.696-.696-2.688-.696-.992 0-1.888.232-2.688.696a4.907 4.907 0 00-1.896 1.896c-.448.816-.672 1.744-.672 2.784 0 1.04.224 1.968.672 2.784a5.08 5.08 0 001.896 1.92c.8.448 1.696.672 2.688.672zm21.449 3.312c-1.744 0-3.32-.376-4.728-1.128-1.392-.752-2.488-1.784-3.288-3.096-.784-1.328-1.176-2.816-1.176-4.464 0-1.648.392-3.128 1.176-4.44a8.452 8.452 0 013.288-3.12c1.408-.752 2.984-1.128 4.728-1.128 1.744 0 3.312.376 4.704 1.128a8.452 8.452 0 013.288 3.12c.8 1.312 1.2 2.792 1.2 4.44 0 1.648-.4 3.136-1.2 4.464-.8 1.312-1.896 2.344-3.288 3.096-1.392.752-2.96 1.128-4.704 1.128zm0-3.312c.992 0 1.888-.224 2.688-.672a4.909 4.909 0 001.872-1.92c.464-.816.696-1.744.696-2.784 0-1.04-.232-1.968-.696-2.784a4.744 4.744 0 00-1.872-1.896c-.8-.464-1.696-.696-2.688-.696-.992 0-1.888.232-2.688.696a4.907 4.907 0 00-1.896 1.896c-.448.816-.672 1.744-.672 2.784 0 1.04.224 1.968.672 2.784a5.08 5.08 0 001.896 1.92c.8.448 1.696.672 2.688.672zM129.484 1.2c1.488 0 2.776.248 3.864.744 1.104.496 1.952 1.2 2.544 2.112.592.912.888 1.992.888 3.24 0 1.232-.296 2.312-.888 3.24-.592.912-1.44 1.616-2.544 2.112-1.088.48-2.376.72-3.864.72H126.1V18h-3.888V1.2h7.272zm-.216 9c1.168 0 2.056-.248 2.664-.744.608-.512.912-1.232.912-2.16 0-.944-.304-1.664-.912-2.16-.608-.512-1.496-.768-2.664-.768H126.1V10.2h3.168z" fill="#fff"/></svg>